
<svg width="120" height="32" viewBox="0 0 120 32" fill="none" xmlns="http://www.w3.org/2000/svg">
  <path d="M52 10.2857H56.1905L61.5238 18.0952V10.2857H65.7143V25.7143H61.5238L56.1905 17.9048V25.7143H52V10.2857Z" fill="#FF3366"/>
  <path d="M76.3819 25.7143H72.1914L70.2866 20.5714H66.4771L64.5723 25.7143H60.3818L66.6676 10.2857H70.0962L76.3819 25.7143ZM69.2866 17.1429L68.3819 14.2857L67.4771 17.1429H69.2866Z" fill="#FF3366"/>
  <path d="M77.9048 10.2857H82.0952V22.2857H88.3809V25.7143H77.9048V10.2857Z" fill="#FF3366"/>
  <path d="M90.0953 10.2857H94.2857V25.7143H90.0953V10.2857Z" fill="#FF3366"/>
  <path d="M37.9048 10.2857H42.0952V22.2857H48.381V25.7143H37.9048V10.2857Z" fill="#FF3366"/>
  <path d="M20.9524 25.7143H16.7619L14.9524 23.4286L13.7143 25.7143H9.52383L12.381 21.1429L9.71431 17.1429H13.9048L15.5238 19.0476L16.7619 17.1429H21.1429L18.2857 21.1429L20.9524 25.7143Z" fill="#FF3366"/>
  <path d="M25.7143 22.2857H31.0477C31.0477 22.2857 33.5239 22.2857 33.5239 19.8095C33.5239 17.3333 31.0477 17.3333 31.0477 17.3333H25.7143V22.2857Z" fill="#FF3366"/>
  <path d="M25.7143 10.2857V14.8571H31.0477C31.0477 14.8571 33.5239 14.8571 33.5239 12.5714C33.5239 10.2857 31.0477 10.2857 31.0477 10.2857H25.7143Z" fill="#FF3366"/>
  <path d="M21.5239 10.2857V25.7143H32.0001L32.0007 25.4286C36.7681 24.6738 37.7143 21.7143 37.7143 20.0952C37.7143 18.4762 36.5667 16.6857 34.8572 16C36.5667 15.3143 37.7143 13.5238 37.7143 11.9048C37.7143 10.2857 36.7681 7.32619 32.0007 6.57143L32.0001 6.28571L21.5239 10.2857Z" fill="#FF3366"/>
  <path d="M113.143 25.7143H108.952L107.048 20.5714H103.238L101.333 25.7143H97.1429L103.429 10.2857H106.857L113.143 25.7143ZM106.048 17.1429L105.143 14.2857L104.238 17.1429H106.048Z" fill="#FF3366"/>
</svg>
