
<svg width="120" height="32" viewBox="0 0 120 32" fill="none" xmlns="http://www.w3.org/2000/svg">
  <path d="M17.9766 12.9922H13.1016V19.9375H17.9766V12.9922Z" fill="#673AB7"/>
  <path d="M35.9766 26.9922H31.1016V9.9375H35.9766V26.9922Z" fill="#673AB7"/>
  <path d="M56.9766 19.3828C56.9766 21.3359 56.5391 23.0078 55.6641 24.3984C54.7891 25.7891 53.5 26.8047 51.7969 27.4453C50.0938 28.0859 48.125 28.4062 45.8906 28.4062C43.6562 28.4062 41.6875 28.0859 39.9844 27.4453C38.2812 26.8047 36.9922 25.7891 36.1172 24.3984C35.2422 23.0078 34.8047 21.3359 34.8047 19.3828V9.9375H39.6797V19.3828C39.6797 20.5859 39.9844 21.5781 40.5938 22.3594C41.2031 23.1406 42.0547 23.7344 43.1484 24.1406C44.2422 24.5469 45.5156 24.75 46.9688 24.75C48.4219 24.75 49.6953 24.5469 50.7891 24.1406C51.8828 23.7344 52.7344 23.1406 53.3438 22.3594C53.9531 21.5781 54.2578 20.5859 54.2578 19.3828V9.9375H59.1328V19.3828H56.9766Z" fill="#673AB7"/>
  <path d="M67.8984 26.9922H63.0391V9.9375H67.8984V17.0156H68.4609L74.0078 9.9375H79.5078L72.9141 18.0078L79.6484 26.9922H73.9219L68.4609 19.1484H67.8984V26.9922Z" fill="#673AB7"/>
  <path d="M82.6953 26.9922V9.9375H96.4609V13.5469H87.5703V16.4062H95.3516V20.0156H87.5703V23.3828H96.6172V26.9922H82.6953Z" fill="#673AB7"/>
  <path d="M100.398 21.3438H108.32C109.742 21.3438 110.641 20.1406 110.641 18.4375C110.641 16.7344 109.742 15.5312 108.32 15.5312H100.398V21.3438ZM100.398 9.9375V11.9219H108.32C112.367 11.9219 115.516 14.8594 115.516 18.4375C115.516 22.0156 112.367 24.9531 108.32 24.9531H95.5234V9.9375H100.398Z" fill="#673AB7"/>
  <path d="M26.9766 12.9922H22.1016V26.9922H26.9766V12.9922Z" fill="#673AB7"/>
  <path d="M26.9766 7.49219H22.1016V11.4922H26.9766V7.49219Z" fill="#673AB7"/>
  <path d="M17.9766 7.49219H13.1016V11.4922H17.9766V7.49219Z" fill="#673AB7"/>
  <path d="M17.9766 21.4922H13.1016V26.9922H17.9766V21.4922Z" fill="#673AB7"/>
</svg>
