
<svg width="120" height="32" viewBox="0 0 120 32" fill="none" xmlns="http://www.w3.org/2000/svg">
  <path d="M69.6809 20.7075C68.9456 21.6682 68.1339 22.4814 67.2654 23.0975C66.3973 23.7132 65.5005 24.148 64.575 24.4013C63.6495 24.6545 62.7385 24.7815 61.8419 24.7815C60.8027 24.7815 59.7878 24.5984 58.7981 24.2334C57.8084 23.8681 56.9399 23.3434 56.1932 22.6613C55.447 21.9788 54.8631 21.1696 54.442 20.2339C54.0205 19.2979 53.8097 18.2825 53.8097 17.1876V9.79956H58.6303V17.0304C58.6303 17.5551 58.7274 18.0548 58.9209 18.5305C59.1149 19.0057 59.3757 19.4194 59.7035 19.7718C60.0313 20.1237 60.4071 20.3955 60.8322 20.5869C61.2572 20.7781 61.7064 20.8734 62.1801 20.8734C62.6774 20.8734 63.1513 20.7693 63.6013 20.5608C64.0517 20.3523 64.4456 20.0587 64.7851 19.6802C65.1246 19.3016 65.3852 18.8536 65.5679 18.337C65.7506 17.82 65.8419 17.2472 65.8419 16.6178V9.79956H70.6626V24.5196H69.6809V20.7075Z" fill="#00CCFF"/>
  <path d="M12.0187 9.79956L17.6809 17.0044L23.3431 9.79956H28.7981L20.2654 20.3261V24.5196H15.0964V20.3261L6.56372 9.79956H12.0187Z" fill="#00CCFF"/>
  <path d="M44.8187 9.79956V13.7076H35.8744V15.7249H44.0593V19.4714H35.8744V24.5196H31.0537V9.79956H44.8187Z" fill="#00CCFF"/>
  <path d="M73.4538 9.79956H78.8204L84.0594 18.9978L89.2983 9.79956H94.665V24.5196H89.8444V16.1988L85.9761 22.8184H82.1428L78.2745 16.1988V24.5196H73.4538V9.79956Z" fill="#00CCFF"/>
  <path d="M107.888 9.79955C108.927 9.79955 109.942 9.97144 110.932 10.3152C111.922 10.6594 112.79 11.1578 113.537 11.8107C114.283 12.4636 114.867 13.2507 115.288 14.1731C115.709 15.0955 115.92 16.1242 115.92 17.2603C115.92 18.3964 115.709 19.4253 115.288 20.3474C114.867 21.2698 114.283 22.0569 113.537 22.7098C112.79 23.363 111.922 23.8611 110.932 24.2053C109.942 24.5494 108.927 24.7211 107.888 24.7211C106.818 24.7211 105.786 24.5494 104.796 24.2053C103.806 23.8611 102.938 23.363 102.191 22.7098C101.445 22.0569 100.861 21.2698 100.44 20.3477C100.019 19.4256 99.8079 18.3964 99.8079 17.2603C99.8079 16.1242 100.019 15.0955 100.44 14.1731C100.861 13.2507 101.445 12.4636 102.191 11.8107C102.938 11.1578 103.806 10.6594 104.796 10.3152C105.786 9.97144 106.818 9.79955 107.888 9.79955ZM107.888 20.7339C108.385 20.7339 108.842 20.6383 109.267 20.4472C109.692 20.2561 110.071 19.984 110.399 19.6321C110.726 19.2802 110.987 18.8665 111.181 18.3913C111.374 17.9156 111.471 17.4072 111.471 16.8652C111.471 16.3232 111.374 15.8148 111.181 15.3391C110.987 14.8639 110.726 14.4502 110.399 14.0983C110.071 13.7464 109.692 13.4743 109.267 13.2832C108.842 13.0921 108.385 12.9965 107.888 12.9965C107.391 12.9965 106.934 13.0921 106.509 13.2832C106.084 13.4743 105.705 13.7464 105.377 14.0983C105.05 14.4502 104.789 14.8639 104.596 15.3391C104.402 15.8148 104.305 16.3232 104.305 16.8652C104.305 17.4072 104.402 17.9156 104.596 18.3913C104.789 18.8665 105.05 19.2802 105.377 19.6321C105.705 19.984 106.084 20.2561 106.509 20.4472C106.934 20.6383 107.391 20.7339 107.888 20.7339Z" fill="#00CCFF"/>
</svg>
