
<svg width="120" height="32" viewBox="0 0 120 32" fill="none" xmlns="http://www.w3.org/2000/svg">
  <path d="M70.5 15.9993C70.5 9.64382 75.6439 4.5 82 4.5C88.3561 4.5 93.5 9.64382 93.5 15.9993C93.5 22.3548 88.3561 27.5 82 27.5C75.6439 27.5 70.5 22.3548 70.5 15.9993Z" stroke="black"/>
  <path d="M82 27.4998C75.6444 27.4998 70.5 22.3554 70.5 15.9998C70.5 9.64417 75.6444 4.49976 82 4.49976" stroke="url(#paint0_linear_7_174)"/>
  <path d="M81.9992 4.5C88.3561 4.5 93.5007 9.64461 93.5007 16.0015C93.5007 22.3584 88.3561 27.503 81.9992 27.503" stroke="url(#paint1_linear_7_174)"/>
  <path d="M37.5 16L28.5 22V10L37.5 16Z" fill="black"/>
  <path d="M16.5 16L25.5 10V22L16.5 16Z" fill="black"/>
  <path d="M25.5 22L34.5 27.5L25.5 33V22Z" fill="black"/>
  <path d="M25.5 33L16.5 27.5L25.5 22V33Z" fill="black"/>
  <path d="M25.5 10L34.5 4.5L25.5 -1V10Z" fill="black"/>
  <path d="M25.5 -1L16.5 4.5L25.5 10V-1Z" fill="black"/>
  <path d="M36.2 11.9H40.8L43.9 21.7H44.1L47.2 11.9H51.8V24.1H48.7V14.3H48.6L45.5 24.1H42.5L39.4 14.3H39.3V24.1H36.2V11.9Z" fill="black"/>
  <path d="M59.3 24.3C58.3333 24.3 57.4667 24.0333 56.7 23.5C55.9333 22.9667 55.3333 22.2 54.9 21.2C54.4667 20.2 54.25 19 54.25 17.6V11.9H57.45V17.6C57.45 18.5333 57.6333 19.3 58 19.9C58.3667 20.5 58.9667 20.8 59.8 20.8C60.6 20.8 61.1833 20.5 61.55 19.9C61.9167 19.3 62.1 18.5333 62.1 17.6V11.9H65.3V17.6C65.3 19 65.0833 20.2 64.65 21.2C64.2167 22.2 63.6167 22.9667 62.85 23.5C62.0833 24.0333 61.1667 24.3 59.3 24.3Z" fill="black"/>
  <path d="M105.9 24.1V11.9H109.1V20.7H114.7V24.1H105.9Z" fill="black"/>
  <path d="M97.5 24.3C96.4 24.3 95.425 24.075 94.575 23.625C93.7417 23.175 93.0833 22.5083 92.6 21.625C92.1333 20.7417 91.9 19.6667 91.9 18.4V17.6C91.9 16.3333 92.1333 15.2583 92.6 14.375C93.0833 13.4917 93.7417 12.825 94.575 12.375C95.425 11.925 96.4 11.7 97.5 11.7C98.2833 11.7 99 11.8083 99.65 12.025C100.317 12.225 100.9 12.5333 101.4 12.95C101.917 13.35 102.333 13.85 102.65 14.45C102.967 15.05 103.15 15.75 103.2 16.55H100.2C100.15 16.0167 99.9583 15.5417 99.625 15.125C99.2917 14.7083 98.5333 14.5 97.85 14.5C97.4333 14.5 97.05 14.6 96.7 14.8C96.3667 15 96.1 15.3083 95.9 15.725C95.7167 16.125 95.625 16.6167 95.625 17.2V18.8C95.625 19.3833 95.7167 19.875 95.9 20.275C96.1 20.675 96.3667 20.9833 96.7 21.2C97.05 21.4 97.4333 21.5 97.85 21.5C98.3167 21.5 98.7083 21.4083 99.025 21.225C99.3417 21.0417 99.5917 20.8 99.775 20.5C99.9583 20.1833 100.067 19.8333 100.1 19.45H103.1C103.05 20.25 102.867 20.9583 102.55 21.575C102.233 22.175 101.817 22.6833 101.3 23.1C100.8 23.5 100.217 23.8083 99.55 24.025C98.9 24.2083 98.2167 24.3 97.5 24.3Z" fill="black"/>
  <defs>
    <linearGradient id="paint0_linear_7_174" x1="70.5" y1="15.9998" x2="82" y2="15.9998" gradientUnits="userSpaceOnUse">
      <stop stop-color="#A855F7"/>
      <stop offset="1" stop-color="#6366F1"/>
    </linearGradient>
    <linearGradient id="paint1_linear_7_174" x1="93.5007" y1="16.0015" x2="81.9992" y2="16.0015" gradientUnits="userSpaceOnUse">
      <stop stop-color="#A855F7"/>
      <stop offset="1" stop-color="#6366F1"/>
    </linearGradient>
  </defs>
</svg>
