
<svg width="120" height="32" viewBox="0 0 120 32" fill="none" xmlns="http://www.w3.org/2000/svg">
  <path d="M103.604 22.1333H99.7963V9.86667H103.604V22.1333Z" fill="#673AB7"/>
  <path d="M111.693 22.5067C110.36 22.5067 109.266 22.2533 108.413 21.7467C107.586 21.24 106.973 20.5333 106.573 19.64C106.2 18.7467 106.013 17.7067 106.013 16.52C106.013 15.3333 106.2 14.2933 106.573 13.4C106.973 12.5067 107.586 11.8 108.413 11.2933C109.266 10.7867 110.36 10.5333 111.693 10.5333C112.733 10.5333 113.613 10.6933 114.333 11.0133C115.053 11.3333 115.626 11.7867 116.053 12.3733C116.48 12.96 116.746 13.64 116.853 14.4133H113.586C113.453 13.9333 113.24 13.5733 112.946 13.3333C112.653 13.0667 112.24 12.9333 111.706 12.9333C111.173 12.9333 110.733 13.0933 110.386 13.4133C110.04 13.7067 109.786 14.12 109.626 14.6533C109.466 15.1867 109.386 15.8 109.386 16.4933C109.386 17.1867 109.466 17.8 109.626 18.3333C109.786 18.8667 110.04 19.2933 110.386 19.6C110.733 19.88 111.173 20.0267 111.706 20.0267C112.053 20.0267 112.346 19.96 112.586 19.8267C112.853 19.6933 113.066 19.4933 113.226 19.2267C113.386 18.96 113.493 18.6267 113.546 18.2267H116.826C116.746 19 116.48 19.68 116.026 20.2933C115.6 20.8933 115.026 21.36 114.306 21.7067C113.586 22.24 112.706 22.5067 111.693 22.5067Z" fill="#673AB7"/>
  <path d="M12.5333 22.1333V9.86667H20.3867V12.2267H15.9333V14.68H19.9067V17.04H15.9333V19.7733H20.5333V22.1333H12.5333Z" fill="#673AB7"/>
  <path d="M24.52 22.5067C23.4 22.5067 22.4533 22.2 21.68 21.5867C20.9333 20.9467 20.56 20.0267 20.56 18.8267C20.56 18.0267 20.76 17.3733 21.16 16.8533C21.56 16.3333 22.12 15.9333 22.84 15.6533C22.3733 15.4133 22.0133 15.1067 21.76 14.7333C21.5333 14.36 21.4133 13.9067 21.4133 13.3733C21.4133 12.28 21.76 11.4267 22.44 10.8133C23.1467 10.2 24.0267 9.89333 25.0933 9.89333C26.1333 9.89333 26.9867 10.2 27.6667 10.8133C28.3467 11.4267 28.6933 12.28 28.6933 13.3733C28.6933 13.9067 28.5733 14.36 28.3467 14.7333C28.12 15.1067 27.76 15.4133 27.2667 15.6533C28 15.9333 28.56 16.3333 28.96 16.8533C29.36 17.3733 29.56 18.0267 29.56 18.8267C29.56 20.0267 29.1733 20.9467 28.4 21.5867C27.6533 22.2 26.7067 22.5067 25.5867 22.5067H24.52ZM25.0267 14.3733C25.3467 14.3733 25.6 14.2667 25.8 14.0533C26 13.84 26.0933 13.56 26.0933 13.2133C26.0933 12.8667 26 12.5733 25.8 12.36C25.6 12.1467 25.3467 12.0267 25.0267 12.0267C24.7067 12.0267 24.44 12.1467 24.24 12.36C24.04 12.5733 23.9467 12.8667 23.9467 13.2133C23.9467 13.56 24.04 13.84 24.24 14.0533C24.44 14.2667 24.7067 14.3733 25.0267 14.3733ZM24.9333 20.32C25.36 20.32 25.7067 20.1867 25.9867 19.92C26.2667 19.6533 26.4 19.3067 26.4 18.88C26.4 18.4533 26.2667 18.1067 25.9867 17.84C25.7067 17.5733 25.36 17.44 24.9333 17.44C24.5067 17.44 24.16 17.5733 23.88 17.84C23.6 18.1067 23.4667 18.4533 23.4667 18.88C23.4667 19.3067 23.6 19.6533 23.88 19.92C24.16 20.1867 24.5067 20.32 24.9333 20.32Z" fill="#673AB7"/>
  <path d="M39.84 22.1333H36.2V17.7333H32.1333V22.1333H28.4933V9.86667H32.1333V15.2267H36.2V9.86667H39.84V22.1333Z" fill="#673AB7"/>
  <path d="M47.2667 22.5067C46.1733 22.5067 45.2267 22.2667 44.44 21.7867C43.6533 21.3067 43.04 20.6267 42.6 19.7467C42.1867 18.8667 41.9733 17.84 41.9733 16.6667V15.32C41.9733 14.1467 42.1867 13.12 42.6 12.24C43.04 11.36 43.6533 10.68 44.44 10.2C45.2267 9.72 46.1733 9.48 47.2667 9.48C48.36 9.48 49.3067 9.72 50.0933 10.2C50.88 10.68 51.48 11.36 51.9067 12.24C52.36 13.12 52.5867 14.1467 52.5867 15.32V16.6667C52.5867 17.84 52.36 18.8667 51.9067 19.7467C51.48 20.6267 50.88 21.3067 50.0933 21.7867C49.3067 22.2667 48.3467 22.5067 47.2667 22.5067ZM47.2667 19.84C47.8933 19.84 48.3867 19.5733 48.7467 19.04C49.1067 18.5067 49.2933 17.7733 49.2933 16.84V15.16C49.2933 14.2267 49.1067 13.4933 48.7467 12.96C48.3867 12.4267 47.8933 12.16 47.2667 12.16C46.64 12.16 46.1467 12.4267 45.7867 12.96C45.4267 13.4933 45.24 14.2267 45.24 15.16V16.84C45.24 17.7733 45.4267 18.5067 45.7867 19.04C46.1467 19.5733 46.64 19.84 47.2667 19.84Z" fill="#673AB7"/>
  <path d="M61.6267 22.5067C60.28 22.5067 59.1867 22.2533 58.3333 21.7467C57.5067 21.24 56.8933 20.5333 56.4933 19.64C56.12 18.7467 55.9333 17.7067 55.9333 16.52C55.9333 15.3333 56.12 14.2933 56.4933 13.4C56.8933 12.5067 57.5067 11.8 58.3333 11.2933C59.1867 10.7867 60.28 10.5333 61.6133 10.5333C62.6533 10.5333 63.5333 10.6933 64.2533 11.0133C64.9733 11.3333 65.5467 11.7867 65.9733 12.3733C66.4 12.96 66.6667 13.64 66.7733 14.4133H63.5067C63.3733 13.9333 63.16 13.5733 62.8667 13.3333C62.5733 13.0667 62.16 12.9333 61.6267 12.9333C61.0933 12.9333 60.6533 13.0933 60.3067 13.4133C59.96 13.7067 59.7067 14.12 59.5467 14.6533C59.3867 15.1867 59.3067 15.8 59.3067 16.4933C59.3067 17.1867 59.3867 17.8 59.5467 18.3333C59.7067 18.8667 59.96 19.2933 60.3067 19.6C60.6533 19.88 61.0933 20.0267 61.6267 20.0267C61.9733 20.0267 62.2667 19.96 62.5067 19.8267C62.7733 19.6933 62.9867 19.4933 63.1467 19.2267C63.3067 18.96 63.4133 18.6267 63.4667 18.2267H66.7467C66.6667 19 66.4 19.68 65.9467 20.2933C65.52 20.8933 64.9467 21.36 64.2267 21.7067C63.5067 22.24 62.6267 22.5067 61.6267 22.5067Z" fill="#673AB7"/>
  <path d="M70.9733 22.1333V12.3733H67.64V9.86667H77.6533V12.3733H74.32V22.1333H70.9733Z" fill="#673AB7"/>
  <path d="M78.7733 22.1333V9.86667H82.4267V22.1333H78.7733Z" fill="#673AB7"/>
  <path d="M83.8267 22.1333V9.86667H87.2V19.4933H92.1867V22.1333H83.8267Z" fill="#673AB7"/>
  <path d="M93.2 22.1333V9.86667H96.5467V22.1333H93.2Z" fill="#673AB7"/>
</svg>
